<svg width="16" height="16" viewBox="0 0 16 16" fill="none" xmlns="http://www.w3.org/2000/svg">
  <path d="M3 4.25C3 3.55964 3.55964 3 4.25 3H11.25C11.9404 3 12.5 3.55964 12.5 4.25V8.75C12.5 9.44036 11.9404 10 11.25 10H4.25C3.55964 10 3 9.44036 3 8.75V4.25Z" stroke="#2E3436" stroke-width="1.2"/>
  <path d="M12.5 5.5H13.25C13.6642 5.5 14 5.83579 14 6.25V6.75C14 7.16421 13.6642 7.5 13.25 7.5H12.5" stroke="#2E3436" stroke-width="1.2" stroke-linecap="round"/>
  <path d="M7.1 3.9L5.6 7H7.2L6.5 9.1L9.6 5.7H8L9 3.9H7.1Z" fill="#2E3436"/>
  <path d="M3.75 12.75H5.75" stroke="#2E3436" stroke-width="1.2" stroke-linecap="round"/>
  <path d="M7.25 12.75H9.25" stroke="#2E3436" stroke-width="1.2" stroke-linecap="round"/>
  <path d="M11 11.75V13.75" stroke="#2E3436" stroke-width="1.2" stroke-linecap="round"/>
</svg>
