<svg width="128" height="128" viewBox="0 0 128 128" fill="none" xmlns="http://www.w3.org/2000/svg">
  <rect width="128" height="128" rx="28" fill="url(#bg)"/>
  <rect x="24" y="34" width="70" height="44" rx="10" fill="#F4F7F8"/>
  <rect x="94" y="47" width="10" height="18" rx="3" fill="#F4F7F8"/>
  <rect x="30" y="40" width="58" height="32" rx="6" fill="#163A4D"/>
  <path d="M61 42L46 62H57L51 84L76 56H63L71 42H61Z" fill="#FFD24A"/>
  <path d="M30 90C30 87.7909 31.7909 86 34 86H94C96.2091 86 98 87.7909 98 90V92C98 94.2091 96.2091 96 94 96H34C31.7909 96 30 94.2091 30 92V90Z" fill="#F4F7F8" fill-opacity="0.18"/>
  <path d="M38 92H44.5" stroke="#7EE787" stroke-width="5" stroke-linecap="round"/>
  <path d="M50 92H56.5" stroke="#7EE787" stroke-width="5" stroke-linecap="round"/>
  <path d="M66 89V95" stroke="#F4F7F8" stroke-width="4.5" stroke-linecap="round"/>
  <path d="M77 87V95" stroke="#F4F7F8" stroke-width="4.5" stroke-linecap="round"/>
  <path d="M87 89V95" stroke="#F4F7F8" stroke-width="4.5" stroke-linecap="round"/>
  <defs>
    <linearGradient id="bg" x1="18" y1="12" x2="108" y2="116" gradientUnits="userSpaceOnUse">
      <stop stop-color="#12344D"/>
      <stop offset="1" stop-color="#1D6F5F"/>
    </linearGradient>
  </defs>
</svg>
